<?xml version="1.0" standalone="no"?>
<!DOCTYPE svg PUBLIC "-//W3C//DTD SVG 20010904//EN"
 "http://www.w3.org/TR/2001/REC-SVG-20010904/DTD/svg10.dtd">
<svg version="1.0" xmlns="http://www.w3.org/2000/svg"
 width="2560.000000pt" height="2560.000000pt" viewBox="0 0 2560.000000 2560.000000"
 preserveAspectRatio="xMidYMid meet">
<metadata>
Created by potrace 1.14, written by Peter Selinger 2001-2017
</metadata>
<g transform="translate(0.000000,2560.000000) scale(0.100000,-0.100000)"
fill="#000000" stroke="none">
<path d="M12244 15359 c-127 -40 -218 -130 -250 -246 -65 -240 129 -437 415
-421 154 9 267 75 329 193 24 44 27 61 26 140 0 69 -5 101 -22 137 -76 170
-302 260 -498 197z"/>
<path d="M6786 15334 c-132 -18 -218 -38 -317 -74 -567 -210 -920 -770 -1040
-1655 -26 -193 -37 -629 -20 -841 71 -890 411 -1480 993 -1718 194 -80 386
-111 628 -103 334 12 635 119 845 303 l71 61 210 -181 c116 -100 237 -205 269
-234 109 -100 181 -117 220 -52 18 32 20 51 19 215 0 153 -4 192 -22 260 -45
161 -123 295 -255 432 l-80 83 51 127 c93 235 152 454 199 738 22 136 25 599
5 795 -99 941 -462 1553 -1050 1769 -216 80 -487 108 -726 75z m359 -729 c209
-44 378 -203 476 -450 44 -111 84 -275 105 -435 23 -169 27 -742 6 -910 -22
-178 -73 -423 -92 -444 -9 -9 -194 85 -325 166 -121 75 -240 173 -301 247 -57
69 -124 192 -124 230 0 33 -36 63 -73 59 -29 -3 -34 -8 -49 -53 -59 -179 -34
-450 61 -666 69 -157 216 -343 365 -461 l48 -38 -45 -20 c-135 -60 -329 -52
-479 20 -267 128 -430 469 -478 1003 -14 158 -14 545 0 682 36 363 115 626
241 812 84 123 226 226 355 257 78 19 222 19 309 1z"/>
<path d="M18850 14359 c-253 -27 -490 -128 -622 -266 -82 -85 -148 -234 -148
-335 0 -179 114 -364 257 -418 101 -38 112 -31 168 104 74 182 157 260 316
300 133 33 299 16 426 -45 201 -96 296 -344 182 -473 -34 -40 -79 -57 -226
-86 -354 -71 -638 -215 -864 -440 -253 -251 -361 -528 -331 -843 23 -234 88
-385 224 -519 163 -162 398 -260 723 -303 169 -22 530 -29 800 -16 264 13 387
30 453 63 47 23 47 23 50 79 2 31 -4 110 -13 175 -10 79 -19 268 -25 559 -16
777 -34 1169 -66 1465 -21 203 -38 270 -94 387 -182 381 -480 574 -948 613
-132 11 -143 11 -262 -1z m581 -1745 c19 -11 44 -35 56 -53 39 -58 45 -122 41
-444 -5 -338 -10 -369 -74 -433 -52 -51 -122 -68 -263 -62 -125 6 -205 29
-291 83 -195 123 -257 365 -149 583 77 157 236 282 421 332 94 26 210 23 259
-6z"/>
<path d="M9291 14265 c-106 -90 -192 -708 -208 -1490 -20 -1022 152 -1610 522
-1781 89 -41 162 -55 285 -55 181 0 273 34 470 176 63 45 125 87 137 94 35 18
97 13 127 -10 23 -18 26 -27 26 -85 0 -128 43 -159 246 -175 153 -12 278 0
331 32 128 79 185 325 213 909 13 272 13 1327 0 1565 -26 481 -71 723 -151
807 l-37 39 -304 -3 c-271 -3 -307 -5 -331 -21 -36 -24 -36 -41 13 -321 89
-520 119 -785 127 -1136 15 -665 -104 -1048 -365 -1177 -72 -36 -81 -38 -171
-38 -122 0 -179 23 -251 102 -87 95 -143 244 -177 470 -25 168 -25 807 0 1033
35 313 85 563 173 864 38 130 42 152 31 175 -23 48 -39 51 -369 51 l-306 0
-31 -25z"/>
<path d="M12037 14266 c-66 -71 -93 -301 -106 -918 -10 -462 3 -1901 18 -2038
19 -165 39 -235 77 -271 l26 -24 343 0 c333 0 344 1 372 21 53 39 56 73 22
251 -120 635 -176 1336 -166 2062 5 331 9 416 31 596 34 277 34 300 -1 322
-24 16 -59 18 -310 21 l-282 4 -24 -26z"/>
<path d="M13374 14276 c-41 -18 -45 -41 -28 -148 34 -210 97 -440 141 -516 38
-67 54 -69 159 -29 208 81 315 100 530 95 151 -3 182 -12 218 -61 l20 -27 -21
-43 c-12 -24 -76 -110 -143 -192 -425 -515 -616 -790 -785 -1130 -104 -209
-166 -374 -215 -570 -46 -184 -63 -324 -59 -473 4 -109 5 -115 31 -137 15 -13
47 -26 70 -30 24 -3 466 -5 983 -3 892 3 942 4 974 21 l34 19 -6 66 c-13 153
-120 535 -173 615 -32 48 -53 48 -156 -4 -157 -79 -363 -113 -641 -107 l-159
3 -24 28 c-53 62 -23 220 80 432 108 221 275 456 654 922 338 416 381 475 406
564 24 84 39 256 40 459 1 212 -4 231 -71 249 -25 7 -341 11 -933 11 -729 -1
-901 -3 -926 -14z"/>
<path d="M15780 14283 c-58 -21 -62 -61 -25 -251 50 -256 112 -437 162 -470
21 -13 29 -13 81 8 229 88 337 110 544 110 144 0 196 -11 233 -48 49 -49 39
-68 -211 -372 -250 -305 -392 -495 -524 -705 -305 -486 -471 -981 -458 -1372
3 -125 13 -145 77 -163 53 -15 1888 -14 1947 1 69 18 76 35 57 144 -37 218
-128 520 -174 579 -28 36 -56 33 -151 -15 -157 -79 -364 -113 -641 -107 l-159
3 -25 30 c-24 27 -25 34 -20 110 16 257 217 584 791 1285 190 233 303 379 339
442 14 24 32 77 41 118 19 93 36 318 36 470 0 138 -14 178 -70 197 -26 9 -263
12 -935 12 -495 0 -907 -3 -915 -6z"/>
</g>
</svg>
